<?xml version="1.0" encoding="UTF-8" standalone="no"?>
<!DOCTYPE svg PUBLIC "-//W3C//DTD SVG 1.1//EN"
 "http://www.w3.org/Graphics/SVG/1.1/DTD/svg11.dtd">
<!-- Generated by graphviz version 2.36.0 (20140111.2315)
 -->
<!-- Title: %3 Pages: 1 -->
<svg width="473pt" height="275pt"
 viewBox="0.00 0.00 473.00 275.00" xmlns="http://www.w3.org/2000/svg" xmlns:xlink="http://www.w3.org/1999/xlink">
<g id="graph0" class="graph" transform="scale(1 1) rotate(0) translate(4 271)">
<title>%3</title>
<polygon fill="white" stroke="none" points="-4,4 -4,-271 469,-271 469,4 -4,4"/>
<g id="clust1" class="cluster"><title>cluster_NewClientConnection</title>
<polygon fill="none" stroke="black" stroke-dasharray="5,2" points="8,-8 8,-259 457,-259 457,-8 8,-8"/>
<text text-anchor="middle" x="232.5" y="-243.8" font-family="Times,serif" font-size="14.00">New Client Connection</text>
</g>
<!-- ClientByteInput -->
<g id="node1" class="node"><title>ClientByteInput</title>
<ellipse fill="none" stroke="black" cx="123" cy="-34" rx="69.3156" ry="18"/>
<text text-anchor="middle" x="123" y="-30.3" font-family="Times,serif" font-size="14.00">ClientByteInput</text>
</g>
<!-- ClientByteOutput -->
<g id="node2" class="node"><title>ClientByteOutput</title>
<ellipse fill="none" stroke="black" cx="348" cy="-210" rx="75.0904" ry="18"/>
<text text-anchor="middle" x="348" y="-206.3" font-family="Times,serif" font-size="14.00">ClientByteOutput</text>
</g>
<!-- ServerInputControlPoint -->
<g id="node3" class="node"><title>ServerInputControlPoint</title>
<ellipse fill="none" stroke="black" cx="348" cy="-122" rx="100.611" ry="18"/>
<text text-anchor="middle" x="348" y="-118.3" font-family="Times,serif" font-size="14.00">ServerInputControlPoint</text>
</g>
<!-- ClientByteOutput&#45;&gt;ServerInputControlPoint -->
<g id="edge1" class="edge"><title>ClientByteOutput&#45;&gt;ServerInputControlPoint</title>
<path fill="none" stroke="black" d="M348,-191.597C348,-179.746 348,-163.817 348,-150.292"/>
<polygon fill="black" stroke="black" points="351.5,-150.084 348,-140.084 344.5,-150.084 351.5,-150.084"/>
<text text-anchor="middle" x="365" y="-162.3" font-family="Times,serif" font-size="14.00">byte[]</text>
</g>
<!-- CotRouterCotInput -->
<g id="node5" class="node"><title>CotRouterCotInput</title>
<ellipse fill="none" stroke="black" cx="340" cy="-34" rx="81.3646" ry="18"/>
<text text-anchor="middle" x="340" y="-30.3" font-family="Times,serif" font-size="14.00">CotRouterCotInput</text>
</g>
<!-- ServerInputControlPoint&#45;&gt;CotRouterCotInput -->
<g id="edge2" class="edge"><title>ServerInputControlPoint&#45;&gt;CotRouterCotInput</title>
<path fill="none" stroke="black" d="M346.381,-103.597C345.279,-91.7459 343.797,-75.8169 342.539,-62.2917"/>
<polygon fill="black" stroke="black" points="346,-61.7168 341.589,-52.084 339.031,-62.3652 346,-61.7168"/>
<text text-anchor="middle" x="398.5" y="-74.3" font-family="Times,serif" font-size="14.00">CotEventContainer</text>
</g>
<!-- ServerOutputControlPoint -->
<g id="node4" class="node"><title>ServerOutputControlPoint</title>
<ellipse fill="none" stroke="black" cx="123" cy="-122" rx="106.386" ry="18"/>
<text text-anchor="middle" x="123" y="-118.3" font-family="Times,serif" font-size="14.00">ServerOutputControlPoint</text>
</g>
<!-- ServerOutputControlPoint&#45;&gt;ClientByteInput -->
<g id="edge4" class="edge"><title>ServerOutputControlPoint&#45;&gt;ClientByteInput</title>
<path fill="none" stroke="black" d="M123,-103.597C123,-91.7459 123,-75.8169 123,-62.2917"/>
<polygon fill="black" stroke="black" points="126.5,-62.084 123,-52.084 119.5,-62.084 126.5,-62.084"/>
<text text-anchor="middle" x="140" y="-74.3" font-family="Times,serif" font-size="14.00">byte[]</text>
</g>
<!-- CotRouterCotOutput -->
<g id="node6" class="node"><title>CotRouterCotOutput</title>
<ellipse fill="none" stroke="black" cx="123" cy="-210" rx="87.1385" ry="18"/>
<text text-anchor="middle" x="123" y="-206.3" font-family="Times,serif" font-size="14.00">CotRouterCotOutput</text>
</g>
<!-- CotRouterCotOutput&#45;&gt;ServerOutputControlPoint -->
<g id="edge3" class="edge"><title>CotRouterCotOutput&#45;&gt;ServerOutputControlPoint</title>
<path fill="none" stroke="black" d="M123,-191.597C123,-179.746 123,-163.817 123,-150.292"/>
<polygon fill="black" stroke="black" points="126.5,-150.084 123,-140.084 119.5,-150.084 126.5,-150.084"/>
<text text-anchor="middle" x="177.5" y="-162.3" font-family="Times,serif" font-size="14.00">CotEventContainer</text>
</g>
</g>
</svg>
